<svg width="190" height="190" viewBox="0 0 190 190" fill="none" xmlns="http://www.w3.org/2000/svg">
<g clip-path="url(#clip0)">
<path d="M186.935 122.581C186.935 144.583 169.099 162.419 147.097 162.419C125.095 162.419 107.258 144.583 107.258 122.581C107.258 100.578 125.095 82.7419 147.097 82.7419C169.099 82.7419 186.935 100.578 186.935 122.581Z" fill="#CF9E76"/>
<path d="M125.645 168.548C125.645 177.01 118.784 183.871 110.323 183.871C101.861 183.871 95 177.01 95 168.548C95 160.087 101.861 153.226 110.323 153.226C118.784 153.226 125.645 160.087 125.645 168.548Z" fill="#FFEAA7"/>
<path d="M183.871 21.4516C183.871 29.9134 177.01 36.7742 168.548 36.7742C160.087 36.7742 153.226 29.9134 153.226 21.4516C153.226 12.9898 160.087 6.12903 168.548 6.12903C177.01 6.12903 183.871 12.9898 183.871 21.4516Z" fill="#FCD770"/>
<path d="M153.226 55.1613C153.226 63.6231 146.365 70.4839 137.903 70.4839C129.441 70.4839 122.581 63.6231 122.581 55.1613C122.581 46.6995 129.441 39.8387 137.903 39.8387C146.365 39.8387 153.226 46.6995 153.226 55.1613Z" fill="#FFEAA7"/>
<path d="M98.0645 134.839C98.0645 143.301 91.2037 150.161 82.7419 150.161C74.2801 150.161 67.4193 143.301 67.4193 134.839C67.4193 126.377 74.2801 119.516 82.7419 119.516C91.2037 119.516 98.0645 126.377 98.0645 134.839Z" fill="#FCD770"/>
<path d="M64.3549 156.29C64.3549 173.216 50.6349 186.936 33.7097 186.936C16.7846 186.936 3.06458 173.216 3.06458 156.29C3.06458 139.365 16.7846 125.645 33.7097 125.645C50.6349 125.645 64.3549 139.365 64.3549 156.29Z" fill="#FFEAA7"/>
<path d="M64.3548 113.019V113.05C62.3317 113.264 60.3101 113.387 58.2257 113.387C31.9634 113.387 10.018 95.0613 4.474 70.4839H42.9031C44.588 70.4839 46.1203 71.1587 47.2246 72.2914C48.3573 73.3957 49.0322 74.928 49.0322 76.6129C49.0322 79.9842 46.2744 82.7419 42.9031 82.7419H33.7096C32.0247 82.7419 30.4925 83.4168 29.3882 84.5495C28.2554 85.6538 27.5806 87.1861 27.5806 88.871C27.5806 92.2422 30.3383 95 33.7096 95H58.2257C61.597 95 64.3548 97.7578 64.3548 101.129V113.019Z" fill="#B4DD7F"/>
<path d="M113.387 58.2258C113.387 63.5588 112.621 68.6763 111.211 73.5484H67.4193C65.7344 73.5484 64.2022 72.8735 63.0979 71.7408C61.9651 70.6365 61.2903 69.1042 61.2903 67.4193C61.2903 64.0481 64.048 61.2903 67.4193 61.2903H88.8709C90.5558 61.2903 92.0881 60.6154 93.1924 59.4827C94.3251 58.3784 95 56.8462 95 55.1613C95 51.79 92.2422 49.0322 88.8709 49.0322H79.6774C77.9925 49.0322 76.4602 48.3574 75.3559 47.2246C74.2232 46.1203 73.5484 44.5881 73.5484 42.9032C73.5484 39.5319 76.3061 36.7742 79.6774 36.7742H109.066C111.855 43.3626 113.387 50.6258 113.387 58.2258Z" fill="#B4DD7F"/>
<path d="M56.4182 17.1302C57.5509 18.2345 58.2257 19.7667 58.2257 21.4516C58.2257 24.8229 55.468 27.5806 52.0967 27.5806H36.7741C35.0892 27.5806 33.557 28.2555 32.4527 29.3882C31.3199 30.4925 30.6451 32.0248 30.6451 33.7097C30.6451 37.0809 33.4029 39.8387 36.7741 39.8387H42.9032C44.588 39.8387 46.1203 40.5135 47.2246 41.6463C48.3573 42.7506 49.0322 44.2828 49.0322 45.9677C49.0322 49.339 46.2744 52.0968 42.9032 52.0968H3.40112C5.05608 37.265 12.5647 24.2094 23.5973 15.3226H52.0967C53.7816 15.3226 55.3139 15.9974 56.4182 17.1302Z" fill="#B4DD7F"/>
<path d="M111.18 73.5484H111.211C105.144 94.6633 86.7567 110.568 64.3549 113.05V101.129C64.3549 97.7578 61.5971 95 58.2259 95H33.7097C30.3385 95 27.5807 92.2422 27.5807 88.871C27.5807 87.1861 28.2556 85.6538 29.3883 84.5495C30.4926 83.4168 32.0249 82.7419 33.7097 82.7419H42.9033C46.2746 82.7419 49.0323 79.9842 49.0323 76.6129C49.0323 74.928 48.3575 73.3958 47.2247 72.2915C46.1204 71.1587 44.5882 70.4839 42.9033 70.4839H4.47413C3.52395 66.5305 3.06458 62.4246 3.06458 58.2258C3.06458 56.1414 3.18728 54.1198 3.40125 52.0968H42.9033C46.2746 52.0968 49.0323 49.339 49.0323 45.9677C49.0323 44.2829 48.3575 42.7506 47.2247 41.6463C46.1204 40.5136 44.5882 39.8387 42.9033 39.8387H36.7743C33.403 39.8387 30.6452 37.0809 30.6452 33.7097C30.6452 32.0248 31.3201 30.4925 32.4528 29.3882C33.5571 28.2555 35.0894 27.5806 36.7743 27.5806H52.0968C55.4681 27.5806 58.2259 24.8229 58.2259 21.4516C58.2259 19.7667 57.551 18.2345 56.4183 17.1302C55.314 15.9974 53.7817 15.3226 52.0968 15.3226H23.5974C33.0663 7.66129 45.1104 3.06451 58.2259 3.06451C81.087 3.06451 100.7 16.9775 109.036 36.7742H79.6775C76.3062 36.7742 73.5484 39.532 73.5484 42.9032C73.5484 44.5881 74.2233 46.1204 75.356 47.2247C76.4603 48.3574 77.9926 49.0323 79.6775 49.0323H88.871C92.2423 49.0323 95.0001 51.79 95.0001 55.1613C95.0001 56.8462 94.3252 58.3784 93.1925 59.4827C92.0882 60.6155 90.5559 61.2903 88.871 61.2903H67.4194C64.0481 61.2903 61.2904 64.0481 61.2904 67.4194C61.2904 69.1042 61.9652 70.6365 63.098 71.7408C64.2023 72.8735 65.7345 73.5484 67.4194 73.5484H111.18Z" fill="#69D6F4"/>
<path d="M33.7097 122.581C15.1236 122.581 0 137.704 0 156.29C0 174.876 15.1236 190 33.7097 190C52.2958 190 67.4193 174.876 67.4193 156.29C67.4193 137.704 52.2958 122.581 33.7097 122.581ZM33.7097 183.871C18.5008 183.871 6.12903 171.496 6.12903 156.29C6.12903 141.084 18.5008 128.71 33.7097 128.71C48.9185 128.71 61.2903 141.084 61.2903 156.29C61.2903 171.496 48.9185 183.871 33.7097 183.871Z" fill="black"/>
<path d="M147.097 79.6774C123.438 79.6774 104.194 98.9219 104.194 122.581C104.194 146.239 123.438 165.484 147.097 165.484C170.756 165.484 190 146.239 190 122.581C190 98.9219 170.756 79.6774 147.097 79.6774ZM147.097 159.355C126.818 159.355 110.323 142.859 110.323 122.581C110.323 102.302 126.818 85.8065 147.097 85.8065C167.375 85.8065 183.871 102.302 183.871 122.581C183.871 142.859 167.375 159.355 147.097 159.355Z" fill="black"/>
<path d="M165.484 36.7742H171.613C171.613 30.0137 177.11 24.5161 183.871 24.5161V18.3871C177.11 18.3871 171.613 12.8895 171.613 6.12903H165.484C165.484 12.8895 159.986 18.3871 153.226 18.3871V24.5161C159.986 24.5161 165.484 30.0137 165.484 36.7742ZM168.548 16.2728C169.912 18.3257 171.674 20.0884 173.727 21.4516C171.674 22.8148 169.912 24.5775 168.548 26.6305C167.185 24.5775 165.423 22.8148 163.37 21.4516C165.423 20.0884 167.185 18.3257 168.548 16.2728Z" fill="black"/>
<path d="M134.839 70.4839H140.968C140.968 63.7234 146.465 58.2258 153.226 58.2258V52.0968C146.465 52.0968 140.968 46.5992 140.968 39.8387H134.839C134.839 46.5992 129.341 52.0968 122.581 52.0968V58.2258C129.341 58.2258 134.839 63.7234 134.839 70.4839ZM137.903 49.9824C139.266 52.0354 141.029 53.7981 143.082 55.1613C141.029 56.5245 139.266 58.2872 137.903 60.3402C136.54 58.2872 134.777 56.5245 132.724 55.1613C134.777 53.7981 136.54 52.0354 137.903 49.9824Z" fill="black"/>
<path d="M98.0645 131.774C91.304 131.774 85.8064 126.277 85.8064 119.516H79.6774C79.6774 126.277 74.1798 131.774 67.4193 131.774V137.903C74.1798 137.903 79.6774 143.401 79.6774 150.161H85.8064C85.8064 143.401 91.304 137.903 98.0645 137.903V131.774ZM82.7419 140.018C81.3787 137.965 79.616 136.202 77.563 134.839C79.616 133.476 81.3787 131.713 82.7419 129.66C84.1051 131.713 85.8678 133.476 87.9207 134.839C85.8678 136.202 84.1051 137.965 82.7419 140.018Z" fill="black"/>
<path d="M113.387 153.226H107.258C107.258 159.986 101.76 165.484 95 165.484V171.613C101.76 171.613 107.258 177.11 107.258 183.871H113.387C113.387 177.11 118.885 171.613 125.645 171.613V165.484C118.885 165.484 113.387 159.986 113.387 153.226ZM110.323 173.727C108.959 171.674 107.197 169.912 105.144 168.548C107.197 167.185 108.959 165.423 110.323 163.37C111.686 165.423 113.448 167.185 115.501 168.548C113.448 169.912 111.686 171.674 110.323 173.727Z" fill="black"/>
<path d="M39.8387 140.968C39.8387 135.9 35.7133 131.774 30.6451 131.774V137.903C32.336 137.903 33.7097 139.28 33.7097 140.968C33.7097 142.656 32.336 144.032 30.6451 144.032V150.161C35.7133 150.161 39.8387 146.036 39.8387 140.968Z" fill="black"/>
<path d="M18.3872 150.161C13.319 150.161 9.1936 154.287 9.1936 159.355C9.1936 164.423 13.319 168.548 18.3872 168.548V162.419C16.6963 162.419 15.3226 161.043 15.3226 159.355C15.3226 157.667 16.6963 156.29 18.3872 156.29C20.078 156.29 21.4517 157.667 21.4517 159.355H27.5807C27.5807 154.287 23.4553 150.161 18.3872 150.161Z" fill="black"/>
<path d="M45.9677 156.29V162.419C47.6586 162.419 49.0322 163.796 49.0322 165.484C49.0322 167.172 47.6586 168.548 45.9677 168.548C44.2768 168.548 42.9032 167.172 42.9032 165.484H36.7742C36.7742 170.552 40.8996 174.677 45.9677 174.677C51.0358 174.677 55.1613 170.552 55.1613 165.484C55.1613 160.416 51.0358 156.29 45.9677 156.29Z" fill="black"/>
<path d="M128.71 119.516V113.387C127.019 113.387 125.645 112.01 125.645 110.323C125.645 108.635 127.019 107.258 128.71 107.258C130.401 107.258 131.774 108.635 131.774 110.323H137.903C137.903 105.254 133.778 101.129 128.71 101.129C123.642 101.129 119.516 105.254 119.516 110.323C119.516 115.391 123.642 119.516 128.71 119.516Z" fill="black"/>
<path d="M171.613 122.581C171.613 124.269 170.239 125.645 168.548 125.645C166.858 125.645 165.484 124.269 165.484 122.581H159.355C159.355 127.649 163.48 131.774 168.548 131.774C173.617 131.774 177.742 127.649 177.742 122.581H171.613Z" fill="black"/>
<path d="M128.71 131.774C123.642 131.774 119.516 135.9 119.516 140.968H125.645C125.645 139.28 127.019 137.903 128.71 137.903C130.401 137.903 131.774 139.28 131.774 140.968H137.903C137.903 135.9 133.778 131.774 128.71 131.774Z" fill="black"/>
<path d="M159.355 104.194C161.046 104.194 162.419 105.57 162.419 107.258H168.548C168.548 102.19 164.423 98.0645 159.355 98.0645C154.287 98.0645 150.161 102.19 150.161 107.258H156.29C156.29 105.57 157.664 104.194 159.355 104.194Z" fill="black"/>
<path d="M27.5807 168.548H33.7097V174.677H27.5807V168.548Z" fill="black"/>
<path d="M45.9678 140.968H52.0968V147.097H45.9678V140.968Z" fill="black"/>
<path d="M137.903 122.581H144.032V128.71H137.903V122.581Z" fill="black"/>
<path d="M140.968 95H147.097V101.129H140.968V95Z" fill="black"/>
<path d="M153.226 134.839V140.968C154.917 140.968 156.29 142.344 156.29 144.032C156.29 145.72 154.917 147.097 153.226 147.097C151.535 147.097 150.161 145.72 150.161 144.032H144.032C144.032 149.1 148.158 153.226 153.226 153.226C158.294 153.226 162.419 149.1 162.419 144.032C162.419 138.964 158.294 134.839 153.226 134.839Z" fill="black"/>
<path d="M58.2258 116.452C90.3329 116.452 116.452 90.3329 116.452 58.2258C116.452 26.1187 90.3329 0 58.2258 0C26.1187 0 0 26.1187 0 58.2258C0 90.3329 26.1187 116.452 58.2258 116.452ZM8.4364 73.5484H42.9032C44.5941 73.5484 45.9677 74.925 45.9677 76.6129C45.9677 78.3008 44.5941 79.6774 42.9032 79.6774H33.7097C28.6416 79.6774 24.5161 83.8028 24.5161 88.871C24.5161 93.9391 28.6416 98.0645 33.7097 98.0645H58.2258C59.9167 98.0645 61.2903 99.4412 61.2903 101.129V110.167C60.2698 110.228 59.2613 110.323 58.2258 110.323C34.8319 110.323 14.9949 94.8189 8.4364 73.5484ZM108.805 70.4839H67.4194C65.7285 70.4839 64.3548 69.1072 64.3548 67.4194C64.3548 65.7315 65.7285 64.3548 67.4194 64.3548H88.871C93.9391 64.3548 98.0645 60.2294 98.0645 55.1613C98.0645 50.0932 93.9391 45.9677 88.871 45.9677H79.6774C77.9865 45.9677 76.6129 44.5911 76.6129 42.9032C76.6129 41.2153 77.9865 39.8387 79.6774 39.8387H106.909C109.079 45.5667 110.323 51.7481 110.323 58.2258C110.323 62.4545 109.761 66.5455 108.805 70.4839ZM104.17 33.7097H79.6774C74.6093 33.7097 70.4839 37.8351 70.4839 42.9032C70.4839 47.9713 74.6093 52.0968 79.6774 52.0968H88.871C90.5618 52.0968 91.9355 53.4734 91.9355 55.1613C91.9355 56.8492 90.5618 58.2258 88.871 58.2258H67.4194C62.3512 58.2258 58.2258 62.3512 58.2258 67.4194C58.2258 72.4875 62.3512 76.6129 67.4194 76.6129H106.909C100.507 93.5022 85.6044 106.203 67.4194 109.462V101.129C67.4194 96.0609 63.2939 91.9355 58.2258 91.9355H33.7097C32.0188 91.9355 30.6452 90.5588 30.6452 88.871C30.6452 87.1831 32.0188 85.8064 33.7097 85.8064H42.9032C47.9713 85.8064 52.0968 81.681 52.0968 76.6129C52.0968 71.5448 47.9713 67.4194 42.9032 67.4194H6.98943C6.45673 64.4282 6.12903 61.3666 6.12903 58.2258C6.12903 57.1903 6.2233 56.1818 6.28465 55.1613H42.9032C47.9713 55.1613 52.0968 51.0359 52.0968 45.9677C52.0968 40.8996 47.9713 36.7742 42.9032 36.7742H36.7742C35.0833 36.7742 33.7097 35.3976 33.7097 33.7097C33.7097 32.0218 35.0833 30.6452 36.7742 30.6452H52.0968C57.1649 30.6452 61.2903 26.5197 61.2903 21.4516C61.2903 16.3835 57.1649 12.2581 52.0968 12.2581H33.7621C41.0612 8.35709 49.3854 6.12903 58.2258 6.12903C78.0928 6.12903 95.3831 17.3142 104.17 33.7097ZM24.7241 18.3871H52.0968C53.7876 18.3871 55.1613 19.7637 55.1613 21.4516C55.1613 23.1395 53.7876 24.5161 52.0968 24.5161H36.7742C31.7061 24.5161 27.5806 28.6416 27.5806 33.7097C27.5806 38.7778 31.7061 42.9032 36.7742 42.9032H42.9032C44.5941 42.9032 45.9677 44.2799 45.9677 45.9677C45.9677 47.6556 44.5941 49.0323 42.9032 49.0323H6.98943C9.17859 36.8206 15.6009 26.0693 24.7241 18.3871Z" fill="black"/>
</g>
<defs>
<clipPath id="clip0">
<rect width="190" height="190" fill="white"/>
</clipPath>
</defs>
</svg>
