<svg width="158" height="38" viewBox="0 0 158 38" fill="none" xmlns="http://www.w3.org/2000/svg">
<g filter="url(#filter0_d)">
<rect x="4" width="150" height="30" rx="10" fill="#73E24D"/>
</g>
<path d="M54.3792 20.7692H52.0276V11.2927H47.4729V20.7692H45.1292V9.39423H54.3792V20.7692ZM55.9417 16.4645C55.9417 15.626 56.1031 14.8786 56.426 14.2224C56.7489 13.5661 57.2125 13.0583 57.8167 12.6989C58.426 12.3395 59.1318 12.1599 59.9338 12.1599C61.0745 12.1599 62.0042 12.5088 62.7229 13.2067C63.4469 13.9046 63.8505 14.8526 63.9338 16.0505L63.9495 16.6286C63.9495 17.9255 63.5875 18.9671 62.8635 19.7536C62.1396 20.5349 61.1682 20.9255 59.9495 20.9255C58.7307 20.9255 57.7568 20.5349 57.0276 19.7536C56.3036 18.9724 55.9417 17.9099 55.9417 16.5661V16.4645ZM58.1995 16.6286C58.1995 17.4307 58.3505 18.0453 58.6526 18.4724C58.9547 18.8942 59.387 19.1052 59.9495 19.1052C60.4963 19.1052 60.9234 18.8968 61.2307 18.4802C61.538 18.0583 61.6917 17.3864 61.6917 16.4645C61.6917 15.6781 61.538 15.0687 61.2307 14.6364C60.9234 14.2041 60.4911 13.988 59.9338 13.988C59.3818 13.988 58.9547 14.2041 58.6526 14.6364C58.3505 15.0635 58.1995 15.7276 58.1995 16.6286ZM69.2307 20.9255C67.9911 20.9255 66.9807 20.5453 66.1995 19.7849C65.4234 19.0244 65.0354 18.0114 65.0354 16.7458V16.527C65.0354 15.6781 65.1995 14.9203 65.5276 14.2536C65.8557 13.5817 66.3193 13.0661 66.9182 12.7067C67.5224 12.3421 68.2099 12.1599 68.9807 12.1599C70.137 12.1599 71.0458 12.5244 71.7073 13.2536C72.3739 13.9828 72.7073 15.0166 72.7073 16.3552V17.277H67.3245C67.3974 17.8291 67.6161 18.2718 67.9807 18.6052C68.3505 18.9385 68.8167 19.1052 69.3792 19.1052C70.2489 19.1052 70.9286 18.7901 71.4182 18.1599L72.5276 19.402C72.1891 19.8812 71.7307 20.2562 71.1526 20.527C70.5745 20.7927 69.9338 20.9255 69.2307 20.9255ZM68.9729 13.988C68.525 13.988 68.1604 14.139 67.8792 14.4411C67.6031 14.7432 67.426 15.1755 67.3479 15.738H70.4885V15.5583C70.4781 15.0583 70.3427 14.6729 70.0823 14.402C69.8219 14.126 69.4521 13.988 68.9729 13.988ZM77.2151 14.8395L78.637 12.3161H81.051L78.6448 16.4567L81.1526 20.7692H78.7307L77.2229 18.113L75.7229 20.7692H73.2932L75.801 16.4567L73.4026 12.3161H75.8245L77.2151 14.8395ZM87.0354 20.7692C86.9312 20.5661 86.8557 20.3135 86.8088 20.0114C86.262 20.6208 85.551 20.9255 84.676 20.9255C83.8479 20.9255 83.1604 20.6859 82.6135 20.2067C82.0719 19.7276 81.801 19.1234 81.801 18.3942C81.801 17.4984 82.1318 16.8109 82.7932 16.3317C83.4599 15.8526 84.4208 15.6104 85.676 15.6052H86.7151V15.1208C86.7151 14.7302 86.6135 14.4177 86.4104 14.1833C86.2125 13.9489 85.8974 13.8317 85.4651 13.8317C85.0849 13.8317 84.7854 13.9229 84.5667 14.1052C84.3531 14.2875 84.2463 14.5375 84.2463 14.8552H81.9885C81.9885 14.3656 82.1396 13.9125 82.4417 13.4958C82.7437 13.0791 83.1708 12.7536 83.7229 12.5192C84.275 12.2796 84.8948 12.1599 85.5823 12.1599C86.6239 12.1599 87.4495 12.4229 88.0588 12.9489C88.6734 13.4697 88.9807 14.2041 88.9807 15.152V18.8161C88.9859 19.6182 89.0979 20.225 89.3167 20.6364V20.7692H87.0354ZM85.1682 19.1989C85.5016 19.1989 85.8088 19.126 86.0901 18.9802C86.3713 18.8291 86.5797 18.6286 86.7151 18.3786V16.9255H85.8713C84.7411 16.9255 84.1396 17.3161 84.0667 18.0974L84.0588 18.2302C84.0588 18.5114 84.1578 18.7432 84.3557 18.9255C84.5536 19.1078 84.8245 19.1989 85.1682 19.1989ZM98.0667 12.3161V20.7692H95.8088V14.1442H93.8167L93.676 16.7536C93.5875 18.1442 93.3141 19.1572 92.8557 19.7927C92.3974 20.4281 91.7151 20.7536 90.8088 20.7692H90.0432L90.0198 18.9333L90.301 18.9099C90.7073 18.8786 91.0042 18.639 91.1917 18.1911C91.3792 17.7432 91.4963 16.9802 91.5432 15.902L91.6995 12.3161H98.0667ZM104.903 12.3161H107.16V20.7692H104.903V15.5505L102.074 20.7692H99.8088V12.3161H102.074V17.527L104.903 12.3161ZM111.184 17.277H109.309L109.043 9.39423H111.449L111.184 17.277ZM110.246 18.5114C110.627 18.5114 110.931 18.6234 111.16 18.8474C111.395 19.0713 111.512 19.3578 111.512 19.7067C111.512 20.0505 111.395 20.3343 111.16 20.5583C110.931 20.7822 110.627 20.8942 110.246 20.8942C109.871 20.8942 109.567 20.7822 109.332 20.5583C109.103 20.3343 108.989 20.0505 108.989 19.7067C108.989 19.363 109.103 19.0791 109.332 18.8552C109.567 18.626 109.871 18.5114 110.246 18.5114Z" fill="white"/>
<defs>
<filter id="filter0_d" x="0" y="0" width="158" height="38" filterUnits="userSpaceOnUse" color-interpolation-filters="sRGB">
<feFlood flood-opacity="0" result="BackgroundImageFix"/>
<feColorMatrix in="SourceAlpha" type="matrix" values="0 0 0 0 0 0 0 0 0 0 0 0 0 0 0 0 0 0 127 0"/>
<feOffset dy="4"/>
<feGaussianBlur stdDeviation="2"/>
<feColorMatrix type="matrix" values="0 0 0 0 0 0 0 0 0 0 0 0 0 0 0 0 0 0 0.1 0"/>
<feBlend mode="normal" in2="BackgroundImageFix" result="effect1_dropShadow"/>
<feBlend mode="normal" in="SourceGraphic" in2="effect1_dropShadow" result="shape"/>
</filter>
</defs>
</svg>
