<svg width="34" height="24" viewBox="0 0 34 24" fill="none" xmlns="http://www.w3.org/2000/svg">
<path d="M30.7419 0C30.0189 0 29.3359 0.281196 28.8137 0.763248L12.9864 16.9521L4.87185 8.63675C4.26928 8.11453 3.66672 7.8735 2.98381 7.8735C1.49749 7.8735 0.292358 9.1188 0.292358 10.6051C0.292358 11.3282 0.573555 12.0111 1.05561 12.4932L11.0983 22.7368C11.7009 23.259 12.3035 23.5 12.9864 23.5C13.7095 23.5 14.3924 23.2188 14.9146 22.7368L32.63 4.65983C33.0718 4.21795 33.3932 3.53504 33.4736 2.77179C33.4334 1.20513 32.2283 0 30.7419 0Z" fill="#010101"/>
</svg>
