<svg width="16" height="42" viewBox="0 0 16 42" fill="none" xmlns="http://www.w3.org/2000/svg">
<rect x="0.5" y="26.5" width="15" height="15" fill="white" stroke="black"/>
<path d="M13.6615 29C13.3846 29 13.1231 29.1077 12.9231 29.2923L6.86154 35.4923L3.75385 32.3077C3.52308 32.1077 3.29231 32.0154 3.03077 32.0154C2.46154 32.0154 2 32.4923 2 33.0615C2 33.3385 2.10769 33.6 2.29231 33.7846L6.13846 37.7077C6.36923 37.9077 6.6 38 6.86154 38C7.13846 38 7.4 37.8923 7.6 37.7077L14.3846 30.7846C14.5538 30.6154 14.6769 30.3538 14.7077 30.0615C14.6923 29.4615 14.2308 29 13.6615 29Z" fill="#73E24D"/>
<rect x="0.5" y="0.5" width="15" height="15" fill="white" stroke="black"/>
</svg>
