<svg width="302" height="32" viewBox="0 0 302 32" fill="none" xmlns="http://www.w3.org/2000/svg">
<rect x="1" y="1" width="300" height="30" rx="10" fill="white"/>
<path d="M14.2734 15.8906H12.8906V21H11.3906V9.625H12.8906V14.6406H14.0625L18.0391 9.625H19.9062L15.5625 15.1406L20.2266 21H18.3906L14.2734 15.8906ZM20.7734 16.6953C20.7734 15.8672 20.9349 15.1224 21.2578 14.4609C21.5859 13.7995 22.0391 13.2891 22.6172 12.9297C23.2005 12.5703 23.8646 12.3906 24.6094 12.3906C25.7604 12.3906 26.6901 12.7891 27.3984 13.5859C28.112 14.3828 28.4688 15.4427 28.4688 16.7656V16.8672C28.4688 17.6901 28.3099 18.4297 27.9922 19.0859C27.6797 19.737 27.2292 20.2448 26.6406 20.6094C26.0573 20.974 25.3854 21.1562 24.625 21.1562C23.4792 21.1562 22.5495 20.7578 21.8359 19.9609C21.1276 19.1641 20.7734 18.1094 20.7734 16.7969V16.6953ZM22.2266 16.8672C22.2266 17.8047 22.4427 18.5573 22.875 19.125C23.3125 19.6927 23.8958 19.9766 24.625 19.9766C25.3594 19.9766 25.9427 19.6901 26.375 19.1172C26.8073 18.5391 27.0234 17.7318 27.0234 16.6953C27.0234 15.7682 26.8021 15.0182 26.3594 14.4453C25.9219 13.8672 25.3385 13.5781 24.6094 13.5781C23.8958 13.5781 23.3203 13.862 22.8828 14.4297C22.4453 14.9974 22.2266 15.8099 22.2266 16.8672ZM33.6719 19.9766C34.1875 19.9766 34.638 19.8203 35.0234 19.5078C35.4089 19.1953 35.6224 18.8047 35.6641 18.3359H37.0312C37.0052 18.8203 36.8385 19.2812 36.5312 19.7188C36.224 20.1562 35.8125 20.5052 35.2969 20.7656C34.7865 21.026 34.2448 21.1562 33.6719 21.1562C32.5208 21.1562 31.6042 20.7734 30.9219 20.0078C30.2448 19.237 29.9062 18.1849 29.9062 16.8516V16.6094C29.9062 15.7865 30.0573 15.0547 30.3594 14.4141C30.6615 13.7734 31.0938 13.276 31.6562 12.9219C32.224 12.5677 32.8932 12.3906 33.6641 12.3906C34.612 12.3906 35.3984 12.6745 36.0234 13.2422C36.6536 13.8099 36.9896 14.5469 37.0312 15.4531H35.6641C35.6224 14.9062 35.4141 14.4583 35.0391 14.1094C34.6693 13.7552 34.2109 13.5781 33.6641 13.5781C32.9297 13.5781 32.3594 13.8438 31.9531 14.375C31.5521 14.901 31.3516 15.6641 31.3516 16.6641V16.9375C31.3516 17.9115 31.5521 18.6615 31.9531 19.1875C32.3542 19.7135 32.9271 19.9766 33.6719 19.9766ZM43.5234 19.0859L46.3984 12.5469H48.2031V21H46.7578V14.8516L44.0234 21H43.0234L40.2344 14.7188V21H38.7891V12.5469H40.6641L43.5234 19.0859ZM50.1484 16.6953C50.1484 15.8672 50.3099 15.1224 50.6328 14.4609C50.9609 13.7995 51.4141 13.2891 51.9922 12.9297C52.5755 12.5703 53.2396 12.3906 53.9844 12.3906C55.1354 12.3906 56.0651 12.7891 56.7734 13.5859C57.487 14.3828 57.8438 15.4427 57.8438 16.7656V16.8672C57.8438 17.6901 57.6849 18.4297 57.3672 19.0859C57.0547 19.737 56.6042 20.2448 56.0156 20.6094C55.4323 20.974 54.7604 21.1562 54 21.1562C52.8542 21.1562 51.9245 20.7578 51.2109 19.9609C50.5026 19.1641 50.1484 18.1094 50.1484 16.7969V16.6953ZM51.6016 16.8672C51.6016 17.8047 51.8177 18.5573 52.25 19.125C52.6875 19.6927 53.2708 19.9766 54 19.9766C54.7344 19.9766 55.3177 19.6901 55.75 19.1172C56.1823 18.5391 56.3984 17.7318 56.3984 16.6953C56.3984 15.7682 56.1771 15.0182 55.7344 14.4453C55.2969 13.8672 54.7135 13.5781 53.9844 13.5781C53.2708 13.5781 52.6953 13.862 52.2578 14.4297C51.8203 14.9974 51.6016 15.8099 51.6016 16.8672ZM59.0234 19.8203L59.5234 19.2031C60.0859 18.474 60.4062 17.3802 60.4844 15.9219L60.6172 12.5469H66.0625V19.8203H67.1484V23.4844H65.7031V21H59.8047V23.4844H58.3594L58.3672 19.8203H59.0234ZM60.7344 19.8203H64.6172V13.8828H62.0156L61.9297 15.8984C61.8411 17.5807 61.4427 18.888 60.7344 19.8203ZM75.8906 16.8672C75.8906 18.1536 75.5964 19.1901 75.0078 19.9766C74.4193 20.763 73.6224 21.1562 72.6172 21.1562C71.5911 21.1562 70.7839 20.8307 70.1953 20.1797V24.25H68.75V12.5469H70.0703L70.1406 13.4844C70.7292 12.7552 71.5469 12.3906 72.5938 12.3906C73.6094 12.3906 74.4115 12.7734 75 13.5391C75.5938 14.3047 75.8906 15.3698 75.8906 16.7344V16.8672ZM74.4453 16.7031C74.4453 15.75 74.2422 14.9974 73.8359 14.4453C73.4297 13.8932 72.8724 13.6172 72.1641 13.6172C71.2891 13.6172 70.6328 14.0052 70.1953 14.7812V18.8203C70.6276 19.5911 71.2891 19.9766 72.1797 19.9766C72.8724 19.9766 73.4219 19.7031 73.8281 19.1562C74.2396 18.6042 74.4453 17.7865 74.4453 16.7031ZM77.3516 16.6953C77.3516 15.8672 77.513 15.1224 77.8359 14.4609C78.1641 13.7995 78.6172 13.2891 79.1953 12.9297C79.7786 12.5703 80.4427 12.3906 81.1875 12.3906C82.3385 12.3906 83.2682 12.7891 83.9766 13.5859C84.6901 14.3828 85.0469 15.4427 85.0469 16.7656V16.8672C85.0469 17.6901 84.888 18.4297 84.5703 19.0859C84.2578 19.737 83.8073 20.2448 83.2188 20.6094C82.6354 20.974 81.9635 21.1562 81.2031 21.1562C80.0573 21.1562 79.1276 20.7578 78.4141 19.9609C77.7057 19.1641 77.3516 18.1094 77.3516 16.7969V16.6953ZM78.8047 16.8672C78.8047 17.8047 79.0208 18.5573 79.4531 19.125C79.8906 19.6927 80.474 19.9766 81.2031 19.9766C81.9375 19.9766 82.5208 19.6901 82.9531 19.1172C83.3854 18.5391 83.6016 17.7318 83.6016 16.6953C83.6016 15.7682 83.3802 15.0182 82.9375 14.4453C82.5 13.8672 81.9167 13.5781 81.1875 13.5781C80.474 13.5781 79.8984 13.862 79.4609 14.4297C79.0234 14.9974 78.8047 15.8099 78.8047 16.8672ZM91.7266 19.0859L94.6016 12.5469H96.4062V21H94.9609V14.8516L92.2266 21H91.2266L88.4375 14.7188V21H86.9922V12.5469H88.8672L91.7266 19.0859ZM111.297 17.3906C111.156 18.5938 110.711 19.5234 109.961 20.1797C109.216 20.8307 108.224 21.1562 106.984 21.1562C105.641 21.1562 104.562 20.6745 103.75 19.7109C102.943 18.7474 102.539 17.4583 102.539 15.8438V14.75C102.539 13.6927 102.727 12.763 103.102 11.9609C103.482 11.1589 104.018 10.5443 104.711 10.1172C105.404 9.6849 106.206 9.46875 107.117 9.46875C108.326 9.46875 109.294 9.80729 110.023 10.4844C110.753 11.1562 111.177 12.0885 111.297 13.2812H109.789C109.659 12.375 109.375 11.7188 108.938 11.3125C108.505 10.9062 107.898 10.7031 107.117 10.7031C106.159 10.7031 105.406 11.0573 104.859 11.7656C104.318 12.474 104.047 13.4818 104.047 14.7891V15.8906C104.047 17.125 104.305 18.1068 104.82 18.8359C105.336 19.5651 106.057 19.9297 106.984 19.9297C107.818 19.9297 108.456 19.7422 108.898 19.3672C109.346 18.987 109.643 18.3281 109.789 17.3906H111.297ZM116.633 21.1562C115.487 21.1562 114.555 20.7812 113.836 20.0312C113.117 19.276 112.758 18.2682 112.758 17.0078V16.7422C112.758 15.9036 112.917 15.1562 113.234 14.5C113.557 13.8385 114.005 13.3229 114.578 12.9531C115.156 12.5781 115.781 12.3906 116.453 12.3906C117.552 12.3906 118.406 12.7526 119.016 13.4766C119.625 14.2005 119.93 15.237 119.93 16.5859V17.1875H114.203C114.224 18.0208 114.466 18.6953 114.93 19.2109C115.398 19.7214 115.992 19.9766 116.711 19.9766C117.221 19.9766 117.654 19.8724 118.008 19.6641C118.362 19.4557 118.672 19.1797 118.938 18.8359L119.82 19.5234C119.112 20.612 118.049 21.1562 116.633 21.1562ZM116.453 13.5781C115.87 13.5781 115.38 13.7917 114.984 14.2188C114.589 14.6406 114.344 15.2344 114.25 16H118.484V15.8906C118.443 15.1562 118.245 14.5885 117.891 14.1875C117.536 13.7812 117.057 13.5781 116.453 13.5781ZM121.742 21V12.5469H125.039C126.164 12.5469 127.026 12.7448 127.625 13.1406C128.229 13.5312 128.531 14.1068 128.531 14.8672C128.531 15.2578 128.414 15.612 128.18 15.9297C127.945 16.2422 127.599 16.4818 127.141 16.6484C127.651 16.7682 128.06 17.0026 128.367 17.3516C128.68 17.7005 128.836 18.1172 128.836 18.6016C128.836 19.3776 128.549 19.9714 127.977 20.3828C127.409 20.7943 126.604 21 125.562 21H121.742ZM123.188 17.2891V19.8359H125.578C126.182 19.8359 126.633 19.724 126.93 19.5C127.232 19.276 127.383 18.9609 127.383 18.5547C127.383 17.7109 126.763 17.2891 125.523 17.2891H123.188ZM123.188 16.1328H125.055C126.409 16.1328 127.086 15.737 127.086 14.9453C127.086 14.1536 126.445 13.7448 125.164 13.7188H123.188V16.1328ZM134.258 21.1562C133.112 21.1562 132.18 20.7812 131.461 20.0312C130.742 19.276 130.383 18.2682 130.383 17.0078V16.7422C130.383 15.9036 130.542 15.1562 130.859 14.5C131.182 13.8385 131.63 13.3229 132.203 12.9531C132.781 12.5781 133.406 12.3906 134.078 12.3906C135.177 12.3906 136.031 12.7526 136.641 13.4766C137.25 14.2005 137.555 15.237 137.555 16.5859V17.1875H131.828C131.849 18.0208 132.091 18.6953 132.555 19.2109C133.023 19.7214 133.617 19.9766 134.336 19.9766C134.846 19.9766 135.279 19.8724 135.633 19.6641C135.987 19.4557 136.297 19.1797 136.562 18.8359L137.445 19.5234C136.737 20.612 135.674 21.1562 134.258 21.1562ZM134.078 13.5781C133.495 13.5781 133.005 13.7917 132.609 14.2188C132.214 14.6406 131.969 15.2344 131.875 16H136.109V15.8906C136.068 15.1562 135.87 14.5885 135.516 14.1875C135.161 13.7812 134.682 13.5781 134.078 13.5781ZM146.375 16.8672C146.375 18.1536 146.081 19.1901 145.492 19.9766C144.904 20.763 144.107 21.1562 143.102 21.1562C142.076 21.1562 141.268 20.8307 140.68 20.1797V24.25H139.234V12.5469H140.555L140.625 13.4844C141.214 12.7552 142.031 12.3906 143.078 12.3906C144.094 12.3906 144.896 12.7734 145.484 13.5391C146.078 14.3047 146.375 15.3698 146.375 16.7344V16.8672ZM144.93 16.7031C144.93 15.75 144.727 14.9974 144.32 14.4453C143.914 13.8932 143.357 13.6172 142.648 13.6172C141.773 13.6172 141.117 14.0052 140.68 14.7812V18.8203C141.112 19.5911 141.773 19.9766 142.664 19.9766C143.357 19.9766 143.906 19.7031 144.312 19.1562C144.724 18.6042 144.93 17.7865 144.93 16.7031ZM155.125 21H153.68V17.3906H149.797V21H148.344V12.5469H149.797V16.2109H153.68V12.5469H155.125V21ZM159.031 15.4609H161.227C162.185 15.4714 162.943 15.7214 163.5 16.2109C164.057 16.7005 164.336 17.3646 164.336 18.2031C164.336 19.0469 164.049 19.724 163.477 20.2344C162.904 20.7448 162.133 21 161.164 21H157.586V12.5469H159.031V15.4609ZM167.352 21H165.898V12.5469H167.352V21ZM159.031 16.6406V19.8203H161.18C161.721 19.8203 162.141 19.6823 162.438 19.4062C162.734 19.125 162.883 18.7422 162.883 18.2578C162.883 17.7891 162.737 17.4062 162.445 17.1094C162.159 16.8073 161.755 16.651 161.234 16.6406H159.031ZM175.344 12.5469H176.789V21H175.344V14.8359L171.445 21H170V12.5469H171.445V18.7188L175.344 12.5469ZM175.734 9.46875C175.734 10.099 175.518 10.6068 175.086 10.9922C174.659 11.3724 174.096 11.5625 173.398 11.5625C172.701 11.5625 172.135 11.3698 171.703 10.9844C171.271 10.599 171.055 10.0938 171.055 9.46875H172.234C172.234 9.83333 172.333 10.1198 172.531 10.3281C172.729 10.5312 173.018 10.6328 173.398 10.6328C173.763 10.6328 174.047 10.5312 174.25 10.3281C174.458 10.125 174.562 9.83854 174.562 9.46875H175.734Z" fill="black"/>
<path d="M11 2H291V0H11V2ZM300 11V21H302V11H300ZM291 30H11V32H291V30ZM2 21V11H0V21H2ZM11 30C6.02944 30 2 25.9706 2 21H0C0 27.0751 4.92488 32 11 32V30ZM300 21C300 25.9706 295.971 30 291 30V32C297.075 32 302 27.0751 302 21H300ZM291 2C295.971 2 300 6.02944 300 11H302C302 4.92487 297.075 0 291 0V2ZM11 0C4.92487 0 0 4.92487 0 11H2C2 6.02944 6.02944 2 11 2V0Z" fill="#DEDBDB"/>
</svg>
